<svg width="669.32074" height="1e3" version="1.1" viewBox="0 0 669.32075 1e3" xml:space="preserve" xmlns="http://www.w3.org/2000/svg"><defs><clipPath id="clipPath16"><path d="m0 500h500v-500h-500z"/></clipPath></defs><g transform="matrix(1.3333333,0,0,-1.3333333,1.239608e-5,666.66664)"><g transform="matrix(1.7942614,0,0,1.7942614,-197.5699,-323.56527)"><g clip-path="url(#clipPath16)"><g transform="translate(389.8877,250.0166)"><path d="m0 0c-15.307 11.064-31.828 24.961-48.01 41.248 5.908-11.884 8.918-25.65 8.918-41.37 0-15.468-2.814-28.976-8.369-40.576 16.008 16.047 32.329 29.76 47.461 40.698" fill="#DCE0DF"/></g><g transform="translate(248.5068,338.5156)"><path d="M 0,0 C 26.94,0 48.972,-5.644 66.117,-16.901 35.246,21.291 9.423,68.265 1.51,120.484 -6.409,68.348 -32.172,21.442 -62.982,-16.717 -45.845,-5.604 -24.873,0 0,0" fill="#DCE0DF"/></g><g transform="translate(149.2041,249.8945)"><path d="M 0,0 C 0,15.6 2.879,29.288 8.621,41.074 -7.467,24.917 -23.879,11.119 -39.092,0.122 -23.83,-10.909 -7.357,-24.761 8.783,-40.985 2.942,-29.153 0,-15.502 0,0" fill="#DCE0DF"/></g><g transform="translate(250.644,301.7856)"><path d="m0 0c-27.48 0-45.207-7.833-53.174-23.489-3.708-7.55-5.552-17.016-5.552-28.402 0-24.344 8.894-39.933 26.693-46.768 8.4-3.275 19.075-4.913 32.033-4.913 30.323 0 48.616 10.393 54.877 31.179 1.711 6.117 2.566 12.952 2.566 20.502 0 27.758-11.958 44.347-35.875 49.754-6.406 1.421-13.602 2.137-21.568 2.137" fill="#DCE0DF"/></g><g transform="translate(312.1455,176.8623)"><path d="m0 0c-17.228-10.254-38.439-15.378-63.639-15.378-25.151 0-46.054 5.474-62.71 16.418 30.699-38.103 56.342-84.895 64.22-136.902 7.898 52.258 33.738 99.256 64.631 137.46-0.832-0.535-1.642-1.084-2.502-1.598" fill="#DCE0DF"/></g></g></g></g></svg>
